<?xml version="1.0" encoding="UTF-8"?>
<svg version="1.1" xmlns="http://www.w3.org/2000/svg" width="64" height="64" viewBox="0 0 1371 1188">

<path fill="currentColor" d="M0 0 C0.66 0 1.32 0 2 0 C2.57161865 0.99290039 2.57161865 0.99290039 3.15478516 2.00585938 C10.0740445 14.02101781 17.00389778 26.02936064 24 38 C30.74714773 49.54721514 37.43339376 61.12902129 44.10888672 72.71777344 C47.23680148 78.14659942 50.36858448 83.57319281 53.5 89 C54.75001879 91.16665583 56.00001878 93.3333225 57.25 95.5 C57.86875 96.5725 58.4875 97.645 59.125 98.75 C94.75 160.50000001 94.75 160.50000001 96.62524414 163.75048828 C97.87435518 165.91557071 99.12354129 168.08060982 100.37280273 170.24560547 C103.51202309 175.68615706 106.64990563 181.12747216 109.78515625 186.5703125 C115.83055159 197.06232094 121.89110219 207.54481676 128 218 C134.74701194 229.54729516 141.43339318 241.12902027 148.10888672 252.71777344 C151.23680148 258.14659942 154.36858448 263.57319281 157.5 269 C158.75001879 271.16665583 160.00001878 273.3333225 161.25 275.5 C162.178125 277.10875 162.178125 277.10875 163.125 278.75 C225 386 286.875 493.25 380.62524414 655.75048828 C381.87435518 657.91557071 383.12354129 660.08060982 384.37280273 662.24560547 C387.51202309 667.68615706 390.64990563 673.12747216 393.78515625 678.5703125 C399.83055159 689.06232094 405.89110219 699.54481676 412 710 C418.74701194 721.54729516 425.43339318 733.12902027 432.10888672 744.71777344 C435.23680148 750.14659942 438.36858448 755.57319281 441.5 761 C442.75001879 763.16665583 444.00001878 765.3333225 445.25 767.5 C445.86875 768.5725 446.4875 769.645 447.125 770.75 C482.75 832.50000001 482.75 832.50000001 484.62524414 835.75048828 C485.87435518 837.91557071 487.12354129 840.08060982 488.37280273 842.24560547 C491.51202309 847.68615706 494.64990563 853.12747216 497.78515625 858.5703125 C503.80747329 869.02206199 509.84669337 879.46299548 515.9375 889.875 C521.35958699 899.14563931 526.70324012 908.45936699 532.02023315 917.79046631 C536.63484029 925.88707843 541.29084886 933.95788801 546 942 C551.4035646 951.22800529 556.72652361 960.4999467 562.02050781 969.79101562 C566.63502804 977.88744133 571.29095255 985.95806509 576 994 C581.4035646 1003.22800529 586.72652361 1012.4999467 592.02050781 1021.79101562 C596.63502804 1029.88744133 601.29095255 1037.95806509 606 1046 C611.4035646 1055.22800529 616.72652361 1064.4999467 622.02050781 1073.79101562 C626.63502804 1081.88744133 631.29095255 1089.95806509 636 1098 C641.40219654 1107.22566898 646.72388068 1116.49522316 652.01647949 1125.78396606 C656.71544783 1134.02866105 661.45764833 1142.24662007 666.25 1150.4375 C670.80993672 1158.23948018 675.36362502 1166.04481166 679.875 1173.875 C680.39352539 1174.76759521 680.91205078 1175.66019043 681.44628906 1176.57983398 C681.91518555 1177.39653564 682.38408203 1178.2132373 682.8671875 1179.0546875 C683.28081543 1179.77124512 683.69444336 1180.48780273 684.12060547 1181.22607422 C685 1183 685 1183 685 1185 C233.56 1185 -217.88 1185 -683 1185 C-678.68227155 1176.36454309 -674.41185855 1168.01134257 -669.5 1159.75 C-668.26891013 1157.65921977 -667.03846367 1155.56806058 -665.80859375 1153.4765625 C-664.86669189 1151.87796387 -664.86669189 1151.87796387 -663.90576172 1150.24707031 C-660.76168919 1144.89014428 -657.66207023 1139.50775935 -654.5625 1134.125 C-653.63062866 1132.50827393 -653.63062866 1132.50827393 -652.67993164 1130.85888672 C-650.78605938 1127.57291441 -648.89291928 1124.28652136 -647 1121 C-639.12337411 1107.32445686 -631.22879908 1093.66039042 -623.26708984 1080.03417969 C-617.10080946 1069.47379718 -610.9950405 1058.87873234 -604.89111328 1048.28222656 C-601.76319852 1042.85340058 -598.63141552 1037.42680719 -595.5 1032 C-594.24998121 1029.83334417 -592.99998122 1027.6666775 -591.75 1025.5 C-579.25 1003.83333333 -566.75 982.16666667 -554.25 960.5 C-553.63116943 959.42733887 -553.01233887 958.35467773 -552.37475586 957.24951172 C-551.12564482 955.08442929 -549.87645871 952.91939018 -548.62719727 950.75439453 C-545.48797691 945.31384294 -542.35009437 939.87252784 -539.21484375 934.4296875 C-533.19252671 923.97793801 -527.15330663 913.53700452 -521.0625 903.125 C-515.64041301 893.85436069 -510.29675988 884.54063301 -504.97976685 875.20953369 C-499.80621213 866.13221364 -494.56857846 857.09428467 -489.2890625 848.078125 C-484.80833854 840.4142623 -480.39493248 832.71321165 -476 825 C-470.48736165 815.32518781 -464.91575433 805.68717863 -459.2890625 796.078125 C-454.80833854 788.4142623 -450.39493248 780.71321165 -446 773 C-440.48736165 763.32518781 -434.91575433 753.68717863 -429.2890625 744.078125 C-424.80833854 736.4142623 -420.39493248 728.71321165 -416 721 C-410.48736165 711.32518781 -404.91575433 701.68717863 -399.2890625 692.078125 C-394.80833854 684.4142623 -390.39493248 676.71321165 -386 669 C-380.48736165 659.32518781 -374.91575433 649.68717863 -369.2890625 640.078125 C-364.80833735 632.41426026 -360.39505776 624.71314165 -356 617 C-350.46014067 607.27875494 -344.86625068 597.59105132 -339.21655273 587.93310547 C-333.06233258 577.40915375 -326.97630004 566.84619863 -320.89111328 556.28222656 C-317.76319852 550.85340058 -314.63141552 545.42680719 -311.5 540 C-310.24998121 537.83334417 -308.99998122 535.6666775 -307.75 533.5 C-289 501 -289 501 -270.25 468.5 C-269.63116943 467.42733887 -269.01233887 466.35467773 -268.37475586 465.24951172 C-267.12564482 463.08442929 -265.87645871 460.91939018 -264.62719727 458.75439453 C-261.48797691 453.31384294 -258.35009437 447.87252784 -255.21484375 442.4296875 C-248.59777108 430.9455118 -241.95366023 419.47803106 -235.26708984 408.03417969 C-229.10080946 397.47379718 -222.9950405 386.87873234 -216.89111328 376.28222656 C-213.76319852 370.85340058 -210.63141552 365.42680719 -207.5 360 C-206.24998121 357.83334417 -204.99998122 355.6666775 -203.75 353.5 C-31.25 54.5 -31.25 54.5 -29.37255859 51.24584961 C-28.13060256 49.09307184 -26.8887396 46.94024037 -25.64697266 44.78735352 C-22.74353087 39.75383085 -19.839215 34.72081952 -16.93145752 29.68978882 C-15.90654597 27.91637392 -14.88193877 26.14278354 -13.85742188 24.36914062 C-12.57547262 22.15004227 -11.29295893 19.93126984 -10.00976562 17.71289062 C-6.617222 11.83872946 -3.26927827 5.9437165 0 0 Z M-166 299 C-164.54877547 302.62806134 -163.12455815 305.74228784 -161.234375 309.11328125 C-160.68144775 310.10126709 -160.12852051 311.08925293 -159.55883789 312.10717773 C-158.96192139 313.16493408 -158.36500488 314.22269043 -157.75 315.3125 C-157.12665771 316.42117432 -156.50331543 317.52984863 -155.86108398 318.67211914 C-150.52126695 328.13940877 -145.05876975 337.53299965 -139.5625 346.91015625 C-135.8678669 353.21570419 -132.21147319 359.54294436 -128.5625 365.875 C-127.93996338 366.95515381 -127.31742676 368.03530762 -126.67602539 369.14819336 C-125.41423174 371.33796334 -124.15259466 373.52782355 -122.89111328 375.71777344 C-119.76319852 381.14659942 -116.63141552 386.57319281 -113.5 392 C-112.24998121 394.16665583 -110.99998122 396.3333225 -109.75 398.5 C-109.13125 399.5725 -108.5125 400.645 -107.875 401.75 C-81 448.33333333 -54.125 494.91666667 -27.25 541.5 C-26.63012207 542.57443359 -26.01024414 543.64886719 -25.37158203 544.75585938 C-24.13289998 546.90295136 -22.8942921 549.05008614 -21.65576172 551.19726562 C-18.7146665 556.29588809 -15.77278587 561.39405296 -12.82830811 566.49072266 C-11.43041399 568.91047665 -10.03293911 571.33047263 -8.63549805 573.75048828 C-7.64347676 575.46801052 -6.65084571 577.18518052 -5.65820312 578.90234375 C-4.76391602 580.45115234 -4.76391602 580.45115234 -3.8515625 582.03125 C-3.32385254 582.94455078 -2.79614258 583.85785156 -2.25244141 584.79882812 C-1.46663489 586.17988691 -0.71060752 587.57878495 0 589 C4.33751396 587.55416201 5.29362672 584.28157201 7.3125 580.4375 C8.20844659 578.7786002 9.10702299 577.12111882 10.0078125 575.46484375 C10.49024414 574.57651855 10.97267578 573.68819336 11.46972656 572.77294922 C14.12291075 567.96521693 16.90757042 563.23521152 19.6875 558.5 C24.63252789 550.05781275 29.55228965 541.60195819 34.4375 533.125 C35.05971436 532.04541016 35.68192871 530.96582031 36.32299805 529.85351562 C37.58511517 527.6631748 38.84707785 525.47274498 40.10888672 523.28222656 C43.23680148 517.85340058 46.36858448 512.42680719 49.5 507 C50.75001879 504.83334417 52.00001878 502.6666775 53.25 500.5 C65.75 478.83333333 78.25 457.16666667 90.75 435.5 C91.36883057 434.42733887 91.98766113 433.35467773 92.62524414 432.24951172 C93.87435518 430.08442929 95.12354129 427.91939018 96.37280273 425.75439453 C99.51202309 420.31384294 102.64990563 414.87252784 105.78515625 409.4296875 C112.40222892 397.9455118 119.04633977 386.47803106 125.73291016 375.03417969 C131.88893089 364.49136787 137.98445756 353.91389495 144.078125 343.33496094 C146.05044502 339.91246457 148.02479836 336.49114622 150 333.0703125 C153.13235819 327.64528064 156.26253012 322.2189951 159.390625 316.79150391 C160.40296318 315.03557631 161.4158973 313.27999201 162.4296875 311.52490234 C163.60096113 309.49691304 164.76973124 307.46750876 165.9375 305.4375 C166.54464844 304.38433594 167.15179687 303.33117187 167.77734375 302.24609375 C169.0796838 300.27983406 169.0796838 300.27983406 169 299 C58.45 299 -52.1 299 -166 299 Z M-336 595 C-334.57181199 599.28456404 -333.48701477 602.1910008 -331.26953125 605.921875 C-330.44787476 607.31575439 -330.44787476 607.31575439 -329.60961914 608.73779297 C-329.01656982 609.73182129 -328.42352051 610.72584961 -327.8125 611.75 C-326.53580222 613.91367549 -325.25978329 616.07775166 -323.984375 618.2421875 C-322.9953418 619.91619629 -322.9953418 619.91619629 -321.98632812 621.62402344 C-318.81074612 627.02126384 -315.68628131 632.44766651 -312.5625 637.875 C-311.30469949 640.05729858 -310.04688692 642.2395902 -308.7890625 644.421875 C-306.89405701 647.7115029 -304.9992747 651.00125929 -303.10449219 654.29101562 C-296.43043688 665.87681766 -289.74535916 677.45553353 -283 689 C-276.25298806 700.54729516 -269.56660682 712.12902027 -262.89111328 723.71777344 C-259.76319852 729.14659942 -256.63141552 734.57319281 -253.5 740 C-252.24998121 742.16665583 -250.99998122 744.3333225 -249.75 746.5 C-249.13125 747.5725 -248.5125 748.645 -247.875 749.75 C-212.25 811.5 -212.25 811.5 -210.37475586 814.75048828 C-209.12564482 816.91557071 -207.87645871 819.08060982 -206.62719727 821.24560547 C-203.48797691 826.68615706 -200.35009437 832.12747216 -197.21484375 837.5703125 C-191.19252671 848.02206199 -185.15330663 858.46299548 -179.0625 868.875 C-173.64041301 878.14563931 -168.29675988 887.45936699 -162.97976685 896.79046631 C-158.36515971 904.88707843 -153.70915114 912.95788801 -149 921 C-143.5964354 930.22800529 -138.27347639 939.4999467 -132.97949219 948.79101562 C-128.36497196 956.88744133 -123.70904745 964.95806509 -119 973 C-113.5964354 982.22800529 -108.27347639 991.4999467 -102.97949219 1000.79101562 C-98.36497196 1008.88744133 -93.70904745 1016.95806509 -89 1025 C-83.5964354 1034.22800529 -78.27347639 1043.4999467 -72.97949219 1052.79101562 C-68.36497196 1060.88744133 -63.70904745 1068.95806509 -59 1077 C-53.5964354 1086.22800529 -48.27347639 1095.4999467 -42.97949219 1104.79101562 C-37.81138067 1113.85874724 -32.58151416 1122.88847742 -27.30444336 1131.89331055 C-24.10942345 1137.35482472 -20.94520412 1142.83240057 -17.81640625 1148.33203125 C-17.28435074 1149.26666702 -17.28435074 1149.26666702 -16.74154663 1150.22018433 C-15.02090987 1153.24412442 -13.30373201 1156.26995368 -11.59179688 1159.29882812 C-7.59438245 1166.33641386 -3.41761819 1173.21802279 1 1180 C3.6908148 1176.76733025 5.93884808 1173.57222803 7.9609375 1169.88671875 C8.50741943 1168.89873291 9.05390137 1167.91074707 9.61694336 1166.89282227 C10.19710205 1165.83506592 10.77726074 1164.77730957 11.375 1163.6875 C16.13848026 1155.09074565 20.96616631 1146.54084764 25.9375 1138.0625 C30.79942127 1129.7662293 35.63619689 1121.45652637 40.4375 1113.125 C41.05931152 1112.04629639 41.68112305 1110.96759277 42.32177734 1109.85620117 C44.21499899 1106.57107749 46.10760983 1103.28560272 48 1100 C55.87662589 1086.32445686 63.77120092 1072.66039042 71.73291016 1059.03417969 C77.89919054 1048.47379718 84.0049595 1037.87873234 90.10888672 1027.28222656 C93.23680148 1021.85340058 96.36858448 1016.42680719 99.5 1011 C100.75001879 1008.83334417 102.00001878 1006.6666775 103.25 1004.5 C115.75 982.83333333 128.25 961.16666667 140.75 939.5 C141.36883057 938.42733887 141.98766113 937.35467773 142.62524414 936.24951172 C143.87435518 934.08442929 145.12354129 931.91939018 146.37280273 929.75439453 C149.51202309 924.31384294 152.64990563 918.87252784 155.78515625 913.4296875 C161.80747329 902.97793801 167.84669337 892.53700452 173.9375 882.125 C179.35958699 872.85436069 184.70324012 863.54063301 190.02023315 854.20953369 C195.19378787 845.13221364 200.43142154 836.09428467 205.7109375 827.078125 C210.19166146 819.4142623 214.60506752 811.71321165 219 804 C224.51263835 794.32518781 230.08424567 784.68717863 235.7109375 775.078125 C240.19166146 767.4142623 244.60506752 759.71321165 249 752 C254.51263835 742.32518781 260.08424567 732.68717863 265.7109375 723.078125 C270.19166146 715.4142623 274.60506752 707.71321165 279 700 C284.51263835 690.32518781 290.08424567 680.68717863 295.7109375 671.078125 C300.53575704 662.82571874 305.28010139 654.52865977 310.01245117 646.2230835 C314.79586231 637.83012397 319.62345537 629.46430111 324.5 621.125 C330.21243146 611.35822306 330.21243146 611.35822306 335.875 601.5625 C336.49117187 600.49128906 337.10734375 599.42007813 337.7421875 598.31640625 C339.07953166 596.29284559 339.07953166 596.29284559 339 595 C116.25 595 -106.5 595 -336 595 Z M-507 890 C-503.04555433 897.90889133 -499.05605359 905.54580824 -494.5625 913.125 C-493.32231764 915.23402286 -492.08275562 917.34341061 -490.84375 919.453125 C-490.20953125 920.53142578 -489.5753125 921.60972656 -488.921875 922.72070312 C-485.77515892 928.08994733 -482.66841381 933.48208191 -479.5625 938.875 C-478.94060791 939.95410645 -478.31871582 941.03321289 -477.67797852 942.14501953 C-476.41550269 944.33582951 -475.15321444 946.5267476 -473.89111328 948.71777344 C-470.76319852 954.14659942 -467.63141552 959.57319281 -464.5 965 C-463.24998121 967.16665583 -461.99998122 969.3333225 -460.75 971.5 C-460.13125 972.5725 -459.5125 973.645 -458.875 974.75 C-378.25 1114.5 -378.25 1114.5 -376.37402344 1117.75170898 C-375.12729744 1119.91268988 -373.88055273 1122.07365998 -372.63378906 1124.23461914 C-368.81139558 1130.85986807 -364.98959273 1137.48545702 -361.16870117 1144.11157227 C-359.90397098 1146.30388927 -358.63852546 1148.49579379 -357.37231445 1150.68725586 C-354.46243124 1155.72396402 -351.56071705 1160.7648082 -348.68359375 1165.8203125 C-348.17473633 1166.71049072 -347.66587891 1167.60066895 -347.14160156 1168.51782227 C-346.19779821 1170.16947813 -345.25809551 1171.82348652 -344.32324219 1173.48022461 C-342.32145932 1177.37579768 -342.32145932 1177.37579768 -339 1180 C-338.38294189 1178.9162207 -338.38294189 1178.9162207 -337.75341797 1177.81054688 C-329.97152151 1164.14961858 -322.15857684 1150.50963683 -314.2199707 1136.93896484 C-308.06463149 1126.41304776 -301.97742889 1115.84815833 -295.89111328 1105.28222656 C-292.76319852 1099.85340058 -289.63141552 1094.42680719 -286.5 1089 C-285.24998121 1086.83334417 -283.99998122 1084.6666775 -282.75 1082.5 C-270.25 1060.83333333 -257.75 1039.16666667 -245.25 1017.5 C-244.63116943 1016.42733887 -244.01233887 1015.35467773 -243.37475586 1014.24951172 C-242.12564482 1012.08442929 -240.87645871 1009.91939018 -239.62719727 1007.75439453 C-236.48797691 1002.31384294 -233.35009437 996.87252784 -230.21484375 991.4296875 C-223.59777108 979.9455118 -216.95366023 968.47803106 -210.26708984 957.03417969 C-204.75390902 947.59229662 -199.28881023 938.12300153 -193.83203125 928.6484375 C-191.51792739 924.6306218 -189.19971817 920.61524574 -186.87535095 916.60336304 C-185.49750497 914.2251401 -184.12091215 911.8461928 -182.74435425 909.46722412 C-181.77549667 907.79403208 -180.80488609 906.1218555 -179.83422852 904.44970703 C-179.24440186 903.42989746 -178.6545752 902.41008789 -178.046875 901.359375 C-177.52963867 900.46702148 -177.01240234 899.57466797 -176.47949219 898.65527344 C-174.89829755 895.81747264 -173.45281037 892.90562074 -172 890 C-282.55 890 -393.1 890 -507 890 Z M175 890 C179.31772845 898.63545691 183.58814145 906.98865743 188.5 915.25 C189.73108987 917.34078023 190.96153633 919.43193942 192.19140625 921.5234375 C192.81934082 922.58916992 193.44727539 923.65490234 194.09423828 924.75292969 C197.23831054 930.10985526 200.33797616 935.49221436 203.4375 940.875 C204.05947266 941.95426758 204.68144531 943.03353516 205.32226562 944.14550781 C206.5846694 946.33614966 207.84687623 948.526905 209.10888672 950.71777344 C212.23680148 956.14659942 215.36858448 961.57319281 218.5 967 C219.75001879 969.16665583 221.00001878 971.3333225 222.25 973.5 C222.86875 974.5725 223.4875 975.645 224.125 976.75 C304.75 1116.5 304.75 1116.5 306.6262207 1119.75219727 C307.8720577 1121.91159395 309.11798818 1124.07093669 310.36401367 1126.23022461 C313.55348953 1131.75767597 316.74116885 1137.28615121 319.92578125 1142.81640625 C323.04709908 1148.23596134 326.17358628 1153.65249775 329.3046875 1159.06640625 C330.40272916 1160.96647372 331.49918612 1162.86745823 332.59375 1164.76953125 C333.9949933 1167.20346167 335.40266801 1169.63353765 336.8125 1172.0625 C337.21509033 1172.76511963 337.61768066 1173.46773926 338.0324707 1174.19165039 C339.91675513 1177.684946 339.91675513 1177.684946 343 1180 C343.3717334 1179.33170166 343.7434668 1178.66340332 344.12646484 1177.97485352 C356.70023144 1155.3905088 356.70023144 1155.3905088 363.11010742 1144.5859375 C366.8522445 1138.27328454 370.523763 1131.92093194 374.1875 1125.5625 C374.82478027 1124.45672607 375.46206055 1123.35095215 376.11865234 1122.21166992 C378.0796138 1118.8080747 380.03988215 1115.40408111 382 1112 C389.87619333 1098.3242105 397.77120284 1084.66038714 405.73291016 1071.03417969 C411.89919054 1060.47379718 418.0049595 1049.87873234 424.10888672 1039.28222656 C427.23680148 1033.85340058 430.36858448 1028.42680719 433.5 1023 C434.75001879 1020.83334417 436.00001878 1018.6666775 437.25 1016.5 C449.75 994.83333333 462.25 973.16666667 474.75 951.5 C475.3692334 950.42661377 475.9884668 949.35322754 476.62646484 948.24731445 C477.87141282 946.08950197 479.1165289 943.93178647 480.36181641 941.77416992 C483.56552651 936.22283408 486.7659363 930.66963459 489.9609375 925.11328125 C502.01664158 904.16091821 502.01664158 904.16091821 507.56396484 895.09692383 C509.27552064 892.7139683 509.27552064 892.7139683 510 890 C399.45 890 288.9 890 175 890 Z " transform="translate(684,1)"/>
</svg>


